<?xml version="1.0" encoding="UTF-8"?>
<svg version="1.1" xmlns="http://www.w3.org/2000/svg" width="2000" height="2000">
<path d="M0 0 C7.63781904 1.38760377 14.93404389 3.77888597 22.3125 6.15625 C23.62183041 6.5748723 24.93128193 6.99311599 26.24084473 7.41101074 C29.03489212 8.30337448 31.82816978 9.19809224 34.62084961 10.09472656 C39.06950737 11.52293554 43.51990948 12.9456506 47.97070312 14.3671875 C48.72015953 14.60657043 49.46961594 14.84595337 50.24178314 15.09259033 C51.76232467 15.57826096 53.28287064 16.06391766 54.80342102 16.54956055 C57.1022618 17.28396926 59.40094111 18.01888143 61.69958496 18.75390625 C75.6218813 23.20482157 89.55904511 27.60787415 103.5 32 C118.33084807 36.67459614 133.15729226 41.36250791 147.97265625 46.0859375 C148.98781846 46.40956048 148.98781846 46.40956048 150.023489 46.7397213 C152.78143611 47.61893852 155.53936206 48.49822208 158.2972784 49.37753582 C160.38567769 50.04338203 162.47408585 50.70920042 164.5625 51.375 C165.25298306 51.59513386 165.94346611 51.81526772 166.65487289 52.0420723 C188.34400139 58.95596731 210.05828829 65.78495365 231.79292679 72.55431366 C254.11942358 79.50849164 276.40841001 86.57467798 298.6815834 93.6976738 C320.0963595 100.54572396 341.53346646 107.31599535 363 114 C385.34002319 120.95647885 407.64939918 128.00390122 429.9375 135.125 C431.40583253 135.5940971 432.87416546 136.06319296 434.34249878 136.5322876 C435.06755206 136.76392923 435.79260534 136.99557087 436.53962994 137.23423195 C440.15920605 138.3906123 443.7788067 139.54691581 447.3984375 140.703125 C448.10720346 140.92954052 448.81596943 141.15595604 449.54621315 141.38923264 C463.70930054 145.91304801 477.88320396 150.40223997 492.0625 154.875 C493.19086273 155.23100281 494.31922546 155.58700562 495.48178101 155.95379639 C502.66025271 158.21843291 509.83914422 160.48173661 517.01812744 162.74475098 C530.76280785 167.07754289 544.50677737 171.41258636 558.25 175.75 C559.05274101 176.00333099 559.85548203 176.25666199 560.68254852 176.51766968 C585.41878216 184.32436726 610.14033365 192.17604805 634.85027695 200.06554031 C660.72640643 208.327365 686.62174708 216.52660266 712.52749634 224.69515991 C725.62628608 228.82647827 738.71927432 232.97608926 751.8125 237.125 C768.36203702 242.36875885 784.91347523 247.60641382 801.46875 252.83203125 C802.25725216 253.08092228 803.04575432 253.32981331 803.85815048 253.58624649 C807.88505097 254.85731644 811.91197331 256.12831713 815.93890381 257.39929199 C841.8449475 265.57575745 867.74590567 273.76779094 893.63614655 281.99416351 C915.00316899 288.78328429 936.37799534 295.54730281 957.75854492 302.29370117 C973.27668816 307.19060779 988.79092092 312.09972112 1004.30297852 317.01586914 C1028.09058585 324.55444985 1051.886401 332.06663178 1075.6875 339.5625 C1077.2528286 340.05549927 1078.81815657 340.54850057 1080.38348389 341.04150391 C1082.7194845 341.77722952 1085.05548534 342.51295439 1087.39148712 343.2486763 C1089.69979458 343.97567658 1092.00810056 344.70268157 1094.31640625 345.4296875 C1095.07298271 345.6679702 1095.82955917 345.9062529 1096.60906219 346.15175629 C1132.58560732 357.48269642 1168.55042317 368.85018609 1204.49874878 380.27032471 C1225.54904683 386.9575011 1246.6071377 393.61965159 1267.67041016 400.26586914 C1280.00487312 404.15810543 1292.33790548 408.05478866 1304.66796875 411.9609375 C1305.32120432 412.16787987 1305.97443989 412.37482224 1306.64747047 412.58803558 C1311.86475342 414.24090229 1317.08195758 415.89401762 1322.29913712 417.54721069 C1339.55342302 423.01458371 1356.81079978 428.47164872 1374.08349609 433.88061523 C1375.95642334 434.46758179 1375.95642334 434.46758179 1377.8671875 435.06640625 C1378.92019043 435.39584229 1379.97319336 435.72527832 1381.05810547 436.06469727 C1384.04844504 437.01540191 1387.02413345 438.00505074 1390 439 C1390.2296558 440.60262538 1390.2296558 440.60262538 1390.46395111 442.23762703 C1393.2042521 461.36024299 1395.9448053 480.48282277 1398.68670654 499.60520935 C1398.8642657 500.84353451 1399.04182485 502.08185966 1399.22476459 503.35770983 C1399.96342657 508.50920823 1400.7020969 513.66070543 1401.44079924 518.81219804 C1403.56830499 533.64880927 1405.69516858 548.48551203 1407.82019043 563.32247925 C1410.15481869 579.62273184 1412.49063928 595.92281317 1414.828125 612.22265625 C1414.92529466 612.90027322 1415.02246431 613.57789019 1415.1225785 614.276041 C1420.29543547 650.34834816 1425.50135296 686.41560501 1430.78103638 722.47245789 C1431.65649595 728.45192729 1432.53001244 734.4316794 1433.40307617 740.41149902 C1433.82233881 743.28253344 1434.2416228 746.15356474 1434.66091537 749.02459478 C1434.93358899 750.89172271 1435.20623589 752.75885453 1435.47885513 754.62599039 C1437.05021693 765.38628698 1438.62985912 776.14529828 1440.22263885 786.90244597 C1441.20280862 793.52599458 1442.1744133 800.15076148 1443.13905549 806.77658921 C1443.79091149 811.25093714 1444.45298069 815.72359388 1445.12362766 820.19516182 C1445.61371257 823.48485243 1446.08744599 826.77685046 1446.56347656 830.06860352 C1446.74174736 831.23465181 1446.92001816 832.40070011 1447.1036911 833.60208321 C1447.25366798 834.66128408 1447.40364487 835.72048496 1447.5581665 836.81178284 C1447.69283451 837.72441674 1447.82750252 838.63705065 1447.96625137 839.57734013 C1448.0048514 842.34825986 1447.49119492 843.68905705 1446 846 C1443.890625 847.9375 1443.890625 847.9375 1441.25 850 C1436.7511362 853.58024763 1432.34913546 857.23940663 1428 861 C1423.898267 864.53674074 1419.77195263 868.02865649 1415.5625 871.4375 C1411.12760683 875.03636029 1406.80432214 878.74732064 1402.5 882.5 C1397.344201 886.99503077 1392.12489333 891.38623051 1386.80859375 895.69140625 C1383.49701634 898.41343997 1380.24683884 901.20136324 1377 904 C1372.89764847 907.53605226 1368.77198323 911.02863171 1364.5625 914.4375 C1360.12760683 918.03636029 1355.80432214 921.74732064 1351.5 925.5 C1346.344201 929.99503077 1341.12489333 934.38623051 1335.80859375 938.69140625 C1332.4970152 941.41344091 1329.24686941 944.20139731 1326 947 C1321.875357 950.55457492 1317.72792096 954.06792298 1313.5 957.5 C1308.09637098 961.88945818 1302.81961545 966.41682809 1297.54296875 970.95703125 C1292.59441284 975.21351925 1287.6052146 979.42167006 1282.61767578 983.63232422 C1280.97091021 985.02459417 1279.32689933 986.42005473 1277.68359375 987.81640625 C1272.67765348 992.06740059 1267.6595962 996.29564292 1262.5625 1000.4375 C1257.14429421 1004.84913055 1251.8472915 1009.39323642 1246.55078125 1013.94921875 C1239.31183876 1020.17522367 1232.04134091 1026.3608624 1224.625 1032.375 C1219.50266476 1036.54156423 1214.52582622 1040.86201281 1209.54956055 1045.20043945 C1205.04060043 1049.1224954 1200.45301936 1052.93031865 1195.80859375 1056.69140625 C1192.4970152 1059.41344091 1189.24686941 1062.20139731 1186 1065 C1181.875357 1068.55457492 1177.72792096 1072.06792298 1173.5 1075.5 C1168.09923828 1079.88712902 1162.825323 1084.41223412 1157.55078125 1088.94921875 C1150.31183876 1095.17522367 1143.04134091 1101.3608624 1135.625 1107.375 C1131.17183329 1110.99725513 1126.82657609 1114.72875281 1122.5 1118.5 C1115.5594594 1124.54791141 1108.48357492 1130.40535383 1101.30078125 1136.1640625 C1095.24954725 1141.0499376 1089.47723345 1146.15317884 1083.77734375 1151.4375 C1080.89652933 1154.09546661 1077.96293452 1156.68015499 1075.00390625 1159.25 C1072.59074252 1161.35740224 1070.19929663 1163.48778004 1067.8125 1165.625 C1067.01457031 1166.33914063 1066.21664063 1167.05328125 1065.39453125 1167.7890625 C1063.77410314 1169.28524898 1062.184545 1170.815455 1060.625 1172.375 C1057.54764269 1175.45235731 1054.37987749 1178.41787764 1051.1875 1181.375 C1050.56439941 1181.9529834 1049.94129883 1182.5309668 1049.29931641 1183.12646484 C1045.60294455 1186.54539206 1041.86738466 1189.90624757 1038.0546875 1193.1953125 C1035.33075213 1195.58781847 1032.66660014 1198.04409419 1030 1200.5 C1026.041452 1204.14422161 1022.04823025 1207.73913904 1017.984375 1211.265625 C1013.94625309 1214.79500714 1009.98085319 1218.40634226 1006 1222 C1004.33359149 1223.50028679 1002.66692647 1225.00028872 1001 1226.5 C1000.175 1227.2425 999.35 1227.985 998.5 1228.75 C961 1262.5 961 1262.5 958.5078125 1264.7421875 C956.81407106 1266.26708244 955.12138831 1267.79315402 953.4296875 1269.3203125 C949.68435744 1272.69912708 945.93481793 1276.06895965 942.125 1279.375 C938.15747276 1282.82851561 934.2915236 1286.3900394 930.42236328 1289.95263672 C927.0355544 1293.06585044 923.60102456 1296.11244538 920.125 1299.125 C917.38176582 1301.54550075 914.69115432 1304.02200642 912 1306.5 C908.09018405 1310.10012756 904.14133532 1313.64417605 900.125 1317.125 C897.38176582 1319.54550075 894.69115432 1322.02200642 892 1324.5 C888.09018405 1328.10012756 884.14133532 1331.64417605 880.125 1335.125 C877.38176544 1337.54550108 874.69117094 1340.0220241 872 1342.5 C868.06715159 1346.12090134 864.09785988 1349.68958925 860.05859375 1353.19140625 C857.5104335 1355.4301125 855.00589407 1357.71410212 852.5 1360 C849.38092989 1362.84524228 846.25244609 1365.6719958 843.0625 1368.4375 C839.11332633 1371.86768576 835.26977695 1375.41003518 831.42211914 1378.95288086 C828.03537381 1382.06599299 824.60093751 1385.11252082 821.125 1388.125 C818.38176582 1390.54550075 815.69115432 1393.02200642 813 1395.5 C809.09018405 1399.10012756 805.14133532 1402.64417605 801.125 1406.125 C798.38176506 1408.54550142 795.69118757 1411.02204178 793 1413.5 C789.04140277 1417.1441694 785.04823168 1420.73913779 780.984375 1424.265625 C776.94625309 1427.79500714 772.98085319 1431.40634226 769 1435 C767.33359149 1436.50028679 765.66692647 1438.00028872 764 1439.5 C763.175 1440.2425 762.35 1440.985 761.5 1441.75 C734 1466.5 734 1466.5 731.5078125 1468.7421875 C729.81407106 1470.26708244 728.12138831 1471.79315402 726.4296875 1473.3203125 C722.68435744 1476.69912708 718.93481793 1480.06895965 715.125 1483.375 C711.15747276 1486.82851561 707.2915236 1490.3900394 703.42236328 1493.95263672 C700.0355544 1497.06585044 696.60102456 1500.11244538 693.125 1503.125 C690.38176506 1505.54550142 687.69118757 1508.02204178 685 1510.5 C681.04140277 1514.1441694 677.04823168 1517.73913779 672.984375 1521.265625 C668.94625309 1524.79500714 664.98085319 1528.40634226 661 1532 C659.33359149 1533.50028679 657.66692647 1535.00028872 656 1536.5 C655.175 1537.2425 654.35 1537.985 653.5 1538.75 C636 1554.5 636 1554.5 633.5078125 1556.7421875 C631.81407106 1558.26708244 630.12138831 1559.79315402 628.4296875 1561.3203125 C624.68435744 1564.69912708 620.93481793 1568.06895965 617.125 1571.375 C613.15747276 1574.82851561 609.2915236 1578.3900394 605.42236328 1581.95263672 C602.0355544 1585.06585044 598.60102456 1588.11244538 595.125 1591.125 C592.38176582 1593.54550075 589.69115432 1596.02200642 587 1598.5 C583.09018405 1602.10012756 579.14133532 1605.64417605 575.125 1609.125 C572.38176582 1611.54550075 569.69115432 1614.02200642 567 1616.5 C563.09018405 1620.10012756 559.14133532 1623.64417605 555.125 1627.125 C552.38176582 1629.54550075 549.69115432 1632.02200642 547 1634.5 C543.09018405 1638.10012756 539.14133532 1641.64417605 535.125 1645.125 C532.38176582 1647.54550075 529.69115432 1650.02200642 527 1652.5 C523.09018405 1656.10012756 519.14133532 1659.64417605 515.125 1663.125 C512.38176506 1665.54550142 509.69118757 1668.02204178 507 1670.5 C503.04140277 1674.1441694 499.04823168 1677.73913779 494.984375 1681.265625 C490.94625309 1684.79500714 486.98085319 1688.40634226 483 1692 C481.33359149 1693.50028679 479.66692647 1695.00028872 478 1696.5 C477.175 1697.2425 476.35 1697.985 475.5 1698.75 C398 1768.5 398 1768.5 395.5078125 1770.7421875 C393.81407106 1772.26708244 392.12138831 1773.79315402 390.4296875 1775.3203125 C386.68435744 1778.69912708 382.93481793 1782.06895965 379.125 1785.375 C375.15747276 1788.82851561 371.2915236 1792.3900394 367.42236328 1795.95263672 C364.03960246 1799.06212939 360.6100433 1802.10597928 357.13671875 1805.11328125 C353.80798419 1808.05254778 350.55211128 1811.071345 347.29882812 1814.09375 C345.87685148 1815.40780032 344.43864875 1816.70422395 343 1818 C342.24074219 1818.83144531 341.48148438 1819.66289063 340.69921875 1820.51953125 C338 1822 338 1822 336.159729 1821.63018799 C335.45636414 1821.37098572 334.75299927 1821.11178345 334.02832031 1820.84472656 C333.22557175 1820.55551834 332.42282318 1820.26631012 331.5957489 1819.96833801 C330.73915176 1819.64878647 329.88255463 1819.32923492 329 1819 C327.24101954 1818.36956312 325.48198425 1817.73927918 323.72290039 1817.10913086 C321.76404644 1816.39557313 319.80565614 1815.68074169 317.84765625 1814.96484375 C316.77659134 1814.57447433 315.70552643 1814.18410492 314.602005 1813.78190613 C312.29469814 1812.94095471 309.98756972 1812.09951355 307.68060303 1811.25762939 C301.4588285 1808.98750403 295.235373 1806.72199695 289.01171875 1804.45703125 C288.3773011 1804.22612038 287.74288345 1803.9952095 287.08924103 1803.75730133 C274.52766004 1799.18581449 261.95420557 1794.64773828 249.375 1790.125 C247.33951782 1789.39298617 245.30403605 1788.66097119 243.26855469 1787.92895508 C240.13873464 1786.8034737 237.00889135 1785.6780571 233.8789978 1784.55278015 C220.52116343 1779.75000111 207.16621595 1774.93921587 193.8125 1770.125 C193.17090565 1769.89371147 192.52931129 1769.66242294 191.86827469 1769.42412567 C171.69325919 1762.15090726 151.5327347 1754.83848049 131.38116455 1747.5005188 C115.32811935 1741.65560725 99.26405085 1735.84243796 83.1875 1730.0625 C66.19181575 1723.9506169 49.19785244 1717.83401447 32.21215153 1711.69443417 C28.95939252 1710.51870751 25.70639768 1709.34364583 22.45272827 1708.17044067 C18.83885829 1706.86691466 15.22595578 1705.56074112 11.61328125 1704.25390625 C10.00273361 1703.67388855 10.00273361 1703.67388855 8.35964966 1703.08215332 C6.40669272 1702.37447283 4.45956251 1701.65038747 2.52023315 1700.90617371 C0.09258954 1699.96713811 0.09258954 1699.96713811 -2.14987183 1699.55244446 C-4.00805664 1699.09130859 -4.00805664 1699.09130859 -7 1697 C-8.5730041 1693.27771068 -9.33297057 1689.45754337 -10.07215118 1685.49413872 C-10.50352 1683.18256402 -10.97143695 1680.88072722 -11.44720459 1678.57789612 C-12.20578291 1674.8903433 -12.94813266 1671.19990797 -13.68334961 1667.50762939 C-15.14991794 1660.19826034 -16.71001664 1652.90928923 -18.27539062 1645.62060547 C-18.57536302 1644.22272316 -18.87531815 1642.82483715 -19.17525673 1641.42694759 C-19.64065198 1639.2581185 -20.10608234 1637.08929702 -20.57169688 1634.920515 C-22.3997495 1626.40168587 -24.2093792 1617.87895193 -26.01904297 1609.35620117 C-26.36551745 1607.72494499 -26.71200587 1606.09369177 -27.05850792 1604.46244144 C-27.58638326 1601.97730191 -28.11424791 1599.49216011 -28.64205849 1597.00700682 C-31.7466563 1582.38975817 -34.85651137 1567.77362653 -37.96564865 1553.15734291 C-38.71369165 1549.64071533 -39.46165617 1546.12407106 -40.20955276 1542.60741234 C-47.92272137 1506.34002193 -55.66515143 1470.07891359 -63.41894341 1433.820189 C-64.02608171 1430.98098615 -64.63316084 1428.14177064 -65.24023807 1425.30255473 C-67.57100173 1414.40190992 -69.9020862 1403.50133375 -72.23379517 1392.60089111 C-72.46597181 1391.51523298 -72.69814846 1390.42957485 -72.93736076 1389.31101799 C-73.37838114 1387.25032955 -73.81997167 1385.18976303 -74.26220894 1383.1293354 C-75.16107615 1378.93951034 -76.05573526 1374.74927109 -76.91998291 1370.55215454 C-77.17858093 1369.30622528 -77.43717896 1368.06029602 -77.70361328 1366.77661133 C-77.91140411 1365.75698807 -78.11919495 1364.73736481 -78.33328247 1363.68684387 C-78.91399456 1361.01514697 -78.91399456 1361.01514697 -80.01852417 1358.70146179 C-80.89654697 1356.28474914 -81.21842246 1354.53942494 -81.45478821 1352.01573181 C-82.04513231 1345.82429635 -83.41107967 1339.82076084 -84.72338867 1333.74829102 C-85.00796957 1332.41595537 -85.29215926 1331.08353611 -85.57599449 1329.75104141 C-86.35386216 1326.10469315 -87.13719443 1322.45953767 -87.92142987 1318.81455445 C-88.76825068 1314.8738661 -89.60988711 1310.93207037 -90.45213318 1306.99040222 C-91.91745247 1300.13610561 -93.38592855 1293.28249153 -94.85650635 1286.42932129 C-97.02297355 1276.33292593 -99.18428407 1266.23543186 -101.3442173 1256.1376369 C-102.36058564 1251.38609069 -103.37713742 1246.63458373 -104.39373779 1241.88308716 C-104.59741927 1240.93109802 -104.80110074 1239.97910888 -105.01095438 1238.99827158 C-106.47766338 1232.14352936 -107.9452993 1225.28898598 -109.41339111 1218.43453979 C-115.06532785 1192.04568414 -120.70748484 1165.65475991 -126.33984375 1139.26171875 C-126.72483249 1137.45772869 -127.10982128 1135.65373865 -127.4948101 1133.84974861 C-129.03901512 1126.61376476 -130.58313804 1119.3777634 -132.12713909 1112.14173603 C-136.28001739 1092.67920971 -140.43511909 1073.21715821 -144.59039378 1053.7551434 C-145.39776298 1049.97365415 -146.2051114 1046.19216047 -147.01246029 1042.41066688 C-157.37060894 993.89482144 -167.73115448 945.3794878 -178.09161377 896.86413574 C-187.26009446 853.93049239 -196.42817561 810.9967639 -205.59375 768.0625 C-205.7887521 767.14905272 -205.98375419 766.23560544 -206.18466544 765.29447794 C-209.51337526 749.70179281 -212.84199754 734.10908899 -216.17059708 718.51638031 C-218.91187199 705.67497492 -221.65317138 692.83357475 -224.39453125 679.9921875 C-224.58931761 679.07974699 -224.78410397 678.16730647 -224.98479295 677.22721624 C-229.46824822 656.22536604 -233.95207516 635.22359523 -238.4368062 614.22201741 C-239.08065038 611.20694766 -239.7244816 608.19187515 -240.36831284 605.17680264 C-242.3175385 596.04868345 -244.26692511 586.92059872 -246.21690392 577.79264039 C-247.30467256 572.70072516 -248.39235031 567.60879051 -249.47998047 562.5168457 C-249.69553542 561.50769517 -249.91109036 560.49854464 -250.13317728 559.45881379 C-253.14619263 545.3520709 -256.15402667 531.24423185 -259.1582942 517.13562357 C-261.05882357 508.21126801 -262.96084596 499.28723069 -264.86328125 490.36328125 C-265.07145414 489.38663537 -265.27962704 488.40998949 -265.4941082 487.40374827 C-271.45548674 459.43885683 -277.49089562 431.49094329 -283.59066087 403.55591941 C-285.0917467 396.67924702 -286.58764905 389.80146396 -288.07981873 382.92285156 C-288.28626556 381.97120849 -288.49271239 381.01956542 -288.70541519 380.03908467 C-289.73117182 375.30979701 -290.75623205 370.58035903 -291.78078747 365.850811 C-293.95217458 355.83274877 -296.14196261 345.81904876 -298.35560638 335.81023782 C-299.84115239 329.08680021 -301.30627775 322.35912769 -302.75497693 315.62765509 C-303.58642359 311.76788269 -304.42749735 307.91086255 -305.29428673 304.05885887 C-306.08437627 300.54731073 -306.84789878 297.03109085 -307.59021437 293.50914359 C-307.99287922 291.63362373 -308.42435499 289.76436158 -308.8567152 287.89546394 C-309.48109303 284.86246026 -310.01456184 282.09615298 -310 279 C-307.74038696 275.81828308 -307.74038696 275.81828308 -305 274 C-304.38898438 273.44957031 -303.77796875 272.89914062 -303.1484375 272.33203125 C-302.56320312 271.83058594 -301.97796875 271.32914062 -301.375 270.8125 C-298.03813291 267.92264718 -294.76040185 264.97590695 -291.5 262 C-288.38092989 259.15475772 -285.25244609 256.3280042 -282.0625 253.5625 C-278.11332633 250.13231424 -274.26977695 246.58996482 -270.42211914 243.04711914 C-267.03537381 239.93400701 -263.60093751 236.88747918 -260.125 233.875 C-257.38176582 231.45449925 -254.69115432 228.97799358 -252 226.5 C-248.09018405 222.89987244 -244.14133532 219.35582395 -240.125 215.875 C-237.38176506 213.45449858 -234.69118757 210.97795822 -232 208.5 C-228.04140277 204.8558306 -224.04823168 201.26086221 -219.984375 197.734375 C-215.94625309 194.20499286 -211.98085319 190.59365774 -208 187 C-206.33359149 185.49971321 -204.66692647 183.99971128 -203 182.5 C-202.175 181.7575 -201.35 181.015 -200.5 180.25 C-163 146.5 -163 146.5 -160.5078125 144.2578125 C-158.81407106 142.73291756 -157.12138831 141.20684598 -155.4296875 139.6796875 C-151.68435744 136.30087292 -147.93481793 132.93104035 -144.125 129.625 C-140.15747276 126.17148439 -136.2915236 122.6099606 -132.42236328 119.04736328 C-129.0355544 115.93414956 -125.60102456 112.88755462 -122.125 109.875 C-119.38176544 107.45449892 -116.69117094 104.9779759 -114 102.5 C-110.06715159 98.87909866 -106.09785988 95.31041075 -102.05859375 91.80859375 C-99.5104335 89.5698875 -97.00589407 87.28589788 -94.5 85 C-91.38092989 82.15475772 -88.25244609 79.3280042 -85.0625 76.5625 C-81.11332633 73.13231424 -77.26977695 69.58996482 -73.42211914 66.04711914 C-70.03537381 62.93400701 -66.60093751 59.88747918 -63.125 56.875 C-60.38176582 54.45449925 -57.69115432 51.97799358 -55 49.5 C-51.09018405 45.89987244 -47.14133532 42.35582395 -43.125 38.875 C-40.38176506 36.45449858 -37.69118757 33.97795822 -35 31.5 C-31.04140277 27.8558306 -27.04823168 24.26086221 -22.984375 20.734375 C-18.94624505 17.20498583 -14.98122935 13.59325348 -11 10 C-8.31152185 7.58297262 -5.62265455 5.16637913 -2.93359375 2.75 C-1.93983036 1.85059394 -0.94775971 0.94775971 0 0 Z " fill="#4C60D2" transform="translate(431,89)"/>
<path d="M0 0 C2.39780595 -0.00218115 4.79514627 -0.02039404 7.19287109 -0.03930664 C38.94987039 -0.15452709 75.10644087 6.9738912 99.16552734 29.18530273 C100.14005859 30.06831055 101.11458984 30.95131836 102.11865234 31.86108398 C109.58151679 38.83700975 115.10212258 46.33947409 120.16552734 55.18530273 C120.73013672 56.16112305 121.29474609 57.13694336 121.87646484 58.14233398 C135.84611683 84.0606477 134.60129333 113.91973956 134.46970916 142.45023751 C134.45073216 147.27078218 134.44917559 152.09133475 134.44563293 156.91191101 C134.43637337 166.00608495 134.41184365 175.10014844 134.38158447 184.19427413 C134.34784882 194.56214192 134.33150667 204.93001547 134.31649816 215.29792464 C134.28528737 236.59379235 134.2303532 257.88950899 134.16552734 279.18530273 C109.74552734 279.18530273 85.32552734 279.18530273 60.16552734 279.18530273 C59.83552734 268.29530273 59.50552734 257.40530273 59.16552734 246.18530273 C56.52552734 249.81530273 53.88552734 253.44530273 51.16552734 257.18530273 C33.57882109 274.77200898 8.10613039 283.02817638 -16.52807617 283.62841797 C-20.64092624 283.61891947 -24.7300887 283.43980763 -28.83447266 283.18530273 C-29.73439941 283.1345459 -30.63432617 283.08378906 -31.56152344 283.03149414 C-59.59674222 281.33017413 -84.30869114 274.3451465 -104.83447266 254.18530273 C-105.61951172 253.42475586 -106.40455078 252.66420898 -107.21337891 251.88061523 C-113.54342836 245.34706165 -117.17285148 238.42869342 -120.83447266 230.18530273 C-121.35267578 229.11666992 -121.87087891 228.04803711 -122.40478516 226.94702148 C-129.31439512 210.50251439 -128.1202308 186.63919906 -121.83447266 170.18530273 C-112.16915505 148.51011029 -95.31303738 134.71736198 -73.5859375 126.20092773 C-51.86429899 118.12888658 -29.10778974 117.01472101 -6.18603516 117.08764648 C-4.43484539 117.08951664 -2.68365508 117.09093771 -0.9324646 117.0919342 C3.62778219 117.09571237 8.18799602 117.10550122 12.74822998 117.11663818 C17.42117874 117.12695465 22.09413293 117.13145353 26.76708984 117.13647461 C35.89991665 117.14712878 45.03271923 117.16414709 54.16552734 117.18530273 C54.02260827 114.93740137 53.87467332 112.68981851 53.72460938 110.44238281 C53.64276398 109.1907283 53.56091858 107.93907379 53.47659302 106.64949036 C52.56369146 96.48294827 48.19152127 87.53399367 41.16552734 80.18530273 C40.55837891 79.54979492 39.95123047 78.91428711 39.32568359 78.25952148 C25.88662449 65.42508263 5.42244459 63.57947059 -12.32006836 63.78100586 C-36.78804406 64.49028231 -64.68849609 71.23910348 -84.05322266 86.98999023 C-84.93494141 87.58166992 -84.93494141 87.58166992 -85.83447266 88.18530273 C-89.5106241 86.95991892 -89.98129404 85.50034712 -91.68789673 82.17175293 C-92.03790741 81.46466187 -92.38791809 80.7575708 -92.74853516 80.02905273 C-93.12247406 79.29392456 -93.49641296 78.55879639 -93.88168335 77.8013916 C-95.08359891 75.43394528 -96.27189785 73.05997018 -97.45947266 70.68530273 C-98.62347409 68.37915221 -99.79027904 66.07443929 -100.95770264 63.77001953 C-101.73541317 62.23340912 -102.5111688 60.69580774 -103.28497314 59.15722656 C-105.28458172 55.19166547 -107.32123926 51.25177839 -109.42724609 47.34155273 C-109.84517426 46.56453003 -110.26310242 45.78750732 -110.69369507 44.98693848 C-111.49396845 43.5058046 -112.29957817 42.02753796 -113.11123657 40.5526123 C-115.83447266 35.51351779 -115.83447266 35.51351779 -115.83447266 32.18530273 C-113.40386827 30.45311252 -111.04586267 28.96513844 -108.45947266 27.49780273 C-107.6943335 27.05791016 -106.92919434 26.61801758 -106.14086914 26.16479492 C-73.74910622 7.90791948 -36.97553969 -0.00374777 0 0 Z " fill="#FEFEFE" transform="translate(803.83447265625,996.814697265625)"/>
<path d="M0 0 C7.31455314 3.65727657 14.45159287 7.28353101 21.5 11.375 C23.33192954 12.42986416 25.16396657 13.48454165 26.99609375 14.5390625 C27.96401855 15.09754883 28.93194336 15.65603516 29.92919922 16.23144531 C34.87679781 19.08089707 39.83598284 21.91002722 44.79443359 24.74053955 C47.78142872 26.44593559 50.76762283 28.15273313 53.75390625 29.859375 C54.96500275 30.55143886 56.17610301 31.24349616 57.38720703 31.93554688 C57.98543274 32.27739014 58.58365845 32.6192334 59.20001221 32.97143555 C59.79400818 33.31086182 60.38800415 33.65028809 61 34 C63.34244792 35.33854167 65.68489583 36.67708333 68.02734375 38.015625 C68.60311661 38.34463806 69.17888947 38.67365112 69.77210999 39.01263428 C71.51473999 40.00842285 73.25737 41.00421143 75 42 C75.86529831 42.49445618 75.86529831 42.49445618 76.74807739 42.99890137 C78.49871826 43.99926758 80.24935913 44.99963379 82 46 C82.57753525 46.33002014 83.1550705 46.66004028 83.75010681 47.00006104 C133.33340454 75.33337402 182.91670227 103.66668701 232.5 132 C233.36615936 132.49494713 233.36615936 132.49494713 234.24981689 132.99989319 C235.41709642 133.66691151 236.58437343 134.33393422 237.75164795 135.0009613 C240.65891745 136.66228349 243.56622972 138.32353075 246.47363281 139.98461914 C251.83569583 143.04823158 257.19736644 146.11252369 262.55755615 149.17941284 C275.34701238 156.49697486 288.13813803 163.81013927 301 171 C299.74327861 174.77016416 298.70437669 175.00711403 295.27734375 176.86328125 C294.27638672 177.41306641 293.27542969 177.96285156 292.24414062 178.52929688 C291.15294922 179.11775391 290.06175781 179.70621094 288.9375 180.3125 C286.6330574 181.57750312 284.32969734 182.84448002 282.02734375 184.11328125 C281.4387558 184.43660431 280.85016785 184.75992737 280.2437439 185.0930481 C274.43418275 188.29170935 268.71385671 191.63434272 263 195 C253.85170287 200.37335762 244.62593361 205.59078477 235.35546875 210.75 C228.18646305 214.74964452 221.07907237 218.84348044 214 223 C204.85086711 228.37196793 195.62596869 233.59076525 186.35546875 238.75 C179.18646305 242.74964452 172.07907237 246.84348044 165 251 C155.85086711 256.37196793 146.62596869 261.59076525 137.35546875 266.75 C130.18646305 270.74964452 123.07907237 274.84348044 116 279 C107.8858115 283.76429416 99.72196604 288.42422499 91.5 293 C82.22783933 298.16089242 73.03874 303.4473117 63.88549805 308.81591797 C55.18755418 313.91035657 46.42035294 318.87553605 37.63671875 323.8203125 C31.10199719 327.50027903 24.59271407 331.22433754 18.0871582 334.95556641 C15.72701489 336.30768478 13.36382529 337.65433135 11 339 C10.1656543 339.47953125 9.33130859 339.9590625 8.47167969 340.453125 C7.66375977 340.91203125 6.85583984 341.3709375 6.0234375 341.84375 C5.29817871 342.25818359 4.57291992 342.67261719 3.82568359 343.09960938 C2 344 2 344 0 344 C0 230.48 0 116.96 0 0 Z " fill="#FEFEFE" transform="translate(1498,519)"/>
<path d="M0 0 C26.4 0 52.8 0 80 0 C80.03738281 11.39917969 80.07476563 22.79835938 80.11328125 34.54296875 C80.1435661 41.77540267 80.1745966 49.00782073 80.20898438 56.24023438 C80.26339761 67.71344546 80.31481377 79.18661254 80.34643555 90.65991211 C80.36948327 99.01720317 80.40295641 107.37437799 80.44870156 115.73157674 C80.47254279 120.15245561 80.49133097 124.57322002 80.49761391 128.99416161 C80.50370623 133.1646979 80.52385374 137.33494166 80.55427551 141.50536919 C80.56298983 143.02697968 80.56679221 144.54862851 80.56500816 146.07026291 C80.55062242 164.0192569 83.91028366 182.57495747 96.80859375 195.86328125 C108.31918138 206.6790648 122.92812009 209.53940888 138.31738281 209.41943359 C152.66008683 208.94582492 168.79085392 203.00158277 179.265625 192.9296875 C193.17343697 177.45568049 197.62547417 157.42463115 197.54589844 137.13867188 C197.55466334 135.62893119 197.56515908 134.11919973 197.57722473 132.60948181 C197.60474917 128.56709381 197.60849697 124.52501387 197.60750484 120.48254585 C197.61066326 116.23711611 197.63634145 111.99181931 197.65948486 107.74645996 C197.69982643 99.73236103 197.72033379 91.71834301 197.73345876 83.70415831 C197.75239315 72.85688348 197.80248712 62.00975347 197.85070229 51.16257668 C197.92569709 34.10839208 197.95951001 17.05438232 198 0 C224.4 0 250.8 0 278 0 C278 90.42 278 180.84 278 274 C253.25 274 228.5 274 203 274 C202.67 263.77 202.34 253.54 202 243 C198.7 246.3 195.4 249.6 192 253 C180.77014497 262.01161206 168.32682149 268.82657443 154.6875 273.4375 C153.9958374 273.67227051 153.3041748 273.90704102 152.59155273 274.14892578 C140.35910481 278.0287326 128.14848666 278.4043173 115.4375 278.375 C114.59372803 278.37478851 113.74995605 278.37457703 112.88061523 278.37435913 C100.48826535 278.34331057 88.89506026 277.75893796 77 274 C75.80117187 273.649375 74.60234375 273.29875 73.3671875 272.9375 C59.81660314 268.57221108 46.48992125 261.68432272 36 252 C35.02546875 251.11699219 34.0509375 250.23398438 33.046875 249.32421875 C19.58869208 236.74627947 11.57300657 221.27462888 5.8125 203.875 C5.57442627 203.17866455 5.33635254 202.4823291 5.09106445 201.76489258 C0.49208003 187.17162025 -0.4477083 171.96692334 -0.34057617 156.77856445 C-0.33972681 155.05164607 -0.34021104 153.3247266 -0.34190369 151.59780884 C-0.34275304 146.97708186 -0.32530236 142.35659574 -0.30418181 137.73592401 C-0.28523503 132.88200161 -0.28365056 128.02807172 -0.28010559 123.17411804 C-0.27083738 114.01258767 -0.24629552 104.85116664 -0.21605712 95.68968409 C-0.17602748 83.28850119 -0.16001595 70.88728769 -0.14255047 58.48605633 C-0.11446972 38.99062256 -0.05466573 19.49541936 0 0 Z " fill="#FEFEFE" transform="translate(1009,1001)"/>
<path d="M0 0 C27.39 0 54.78 0 83 0 C83 95.7 83 191.4 83 290 C142.07 290 201.14 290 262 290 C262 312.44 262 334.88 262 358 C175.54 358 89.08 358 0 358 C0 239.86 0 121.72 0 0 Z " fill="#FDFDFE" transform="translate(389,918)"/>
<path d="M0 0 C0.67387253 -0.00014603 1.34774506 -0.00029205 2.04203796 -0.0004425 C4.24957601 0.00024918 6.45702764 0.00800642 8.66455078 0.01586914 C10.20297194 0.01773597 11.7413937 0.01915862 13.27981567 0.02015686 C17.31410383 0.0239612 21.34835556 0.03377355 25.38262939 0.04486084 C29.50524401 0.05511989 33.62786456 0.05966408 37.75048828 0.06469727 C45.82862993 0.07539782 53.90674207 0.09244904 61.98486328 0.11352539 C62.13522383 4.04179115 62.24299795 7.96890293 62.31445312 11.89941406 C62.35882276 13.8795878 62.43513498 15.85896408 62.51220703 17.83813477 C62.70598422 30.59513278 58.11051225 38.66115252 49.45751953 47.76196289 C34.57514494 61.91550082 17.42828677 65.78860785 -2.47216797 65.42602539 C-15.19466851 64.90434418 -26.49070209 61.25042083 -35.32763672 51.80102539 C-41.62491441 43.74963135 -43.02281598 36.25329796 -42.01513672 26.11352539 C-40.64613664 18.13176599 -36.36697092 12.65571602 -30.16748047 7.60961914 C-21.48656755 1.63814927 -10.32948637 -0.01891847 0 0 Z " fill="#4D60D2" transform="translate(797.01513671875,1160.886474609375)"/>
</svg>
