<?xml version="1.0" encoding="UTF-8"?>
<svg version="1.1" xmlns="http://www.w3.org/2000/svg" width="2000" height="2000">
<path d="M0 0 C6.22681116 1.57666769 12.33174665 3.56971431 18.44311523 5.53881836 C19.75244565 5.95744066 21.06189716 6.37568435 22.37145996 6.7935791 C25.16550736 7.68594284 27.95878501 8.5806606 30.75146484 9.47729492 C35.2001226 10.9055039 39.65052471 12.32821895 44.10131836 13.74975586 C44.85077477 13.98913879 45.60023117 14.22852173 46.37239838 14.47515869 C47.8929399 14.96082932 49.41348587 15.44648602 50.93403625 15.93212891 C53.23287703 16.66653762 55.53155634 17.40144979 57.8302002 18.13647461 C71.75249654 22.58738993 85.68966035 26.99044251 99.63061523 31.38256836 C114.4614633 36.0571645 129.28790749 40.74507627 144.10327148 45.46850586 C145.11843369 45.79212884 145.11843369 45.79212884 146.15410423 46.12228966 C148.91205134 47.00150688 151.6699773 47.88079044 154.42789364 48.76010418 C156.51629293 49.42595039 158.60470108 50.09176877 160.69311523 50.75756836 C161.38359829 50.97770222 162.07408134 51.19783607 162.78548813 51.42464066 C184.47461663 58.33853567 206.18890353 65.16752201 227.92354202 71.93688202 C250.25003882 78.89106 272.53902524 85.95724634 294.81219864 93.08024216 C316.22697473 99.92829232 337.6640817 106.69856371 359.13061523 113.38256836 C381.47063842 120.33904721 403.78001441 127.38646958 426.06811523 134.50756836 C427.53644777 134.97666546 429.00478069 135.44576132 430.47311401 135.91485596 C431.1981673 136.14649759 431.92322058 136.37813923 432.67024517 136.61680031 C436.28982129 137.77318066 439.90942194 138.92948417 443.52905273 140.08569336 C444.2378187 140.31210888 444.94658466 140.5385244 445.67682838 140.77180099 C459.83991578 145.29561637 474.0138192 149.78480833 488.19311523 154.25756836 C489.32147797 154.61357117 490.4498407 154.96957397 491.61239624 155.33636475 C498.79086794 157.60100127 505.96975945 159.86430496 513.14874268 162.12731934 C526.89342309 166.46011125 540.6373926 170.79515472 554.38061523 175.13256836 C555.18335625 175.38589935 555.98609726 175.63923035 556.81316376 175.90023804 C581.5493974 183.70693562 606.27094888 191.55861641 630.98089218 199.44810867 C656.85702166 207.70993335 682.75236231 215.90917102 708.65811157 224.07772827 C721.75690132 228.20904663 734.84988956 232.35865762 747.94311523 236.50756836 C764.49265226 241.75132721 781.04409047 246.98898218 797.59936523 252.21459961 C798.38786739 252.46349064 799.17636955 252.71238167 799.98876572 252.96881485 C804.0156662 254.2398848 808.04258854 255.51088549 812.06951904 256.78186035 C837.97556273 264.95832581 863.87652091 273.1503593 889.76676178 281.37673187 C911.13378422 288.16585265 932.50861058 294.92987117 953.88916016 301.67626953 C969.40730339 306.57317615 984.92153615 311.48228948 1000.43359375 316.3984375 C1024.22120109 323.93701821 1048.01701624 331.44920014 1071.81811523 338.94506836 C1073.38344384 339.43806763 1074.9487718 339.93106893 1076.51409912 340.42407227 C1078.85009973 341.15979788 1081.18610058 341.89552275 1083.52210236 342.63124466 C1085.83040982 343.35824494 1088.1387158 344.08524993 1090.44702148 344.81225586 C1091.20359795 345.05053856 1091.96017441 345.28882126 1092.73967743 345.53432465 C1129.97855038 357.2628394 1167.20428824 369.03233436 1204.41430664 380.85205078 C1223.54533378 386.92885216 1242.68034591 392.99296259 1261.81781006 399.04946899 C1275.46542638 403.36869398 1289.11168381 407.69209392 1302.75394821 412.02819061 C1304.87472574 412.70225051 1306.9955397 413.37619566 1309.11636353 414.05010986 C1320.58898891 417.69579261 1320.58898891 417.69579261 1325.45410156 419.24414062 C1340.55089918 424.04824331 1355.65947793 428.80992359 1370.79698181 433.48403931 C1371.93325516 433.83517792 1373.0695285 434.18631653 1374.24023438 434.5480957 C1375.23559708 434.85500336 1376.23095978 435.16191101 1377.25648499 435.4781189 C1380.22635279 436.41269566 1383.17804898 437.39487298 1386.13061523 438.38256836 C1386.36027103 439.98519374 1386.36027103 439.98519374 1386.59456635 441.62019539 C1389.33486734 460.74281135 1392.07542054 479.86539113 1394.81732178 498.98777771 C1394.99488093 500.22610287 1395.17244009 501.46442802 1395.35537982 502.74027818 C1396.0940418 507.89177659 1396.83271213 513.04327379 1397.57141447 518.1947664 C1399.69892023 533.03137763 1401.82578382 547.86808039 1403.95080566 562.70504761 C1406.28543393 579.0053002 1408.62125452 595.30538153 1410.95874023 611.60522461 C1411.05590989 612.28284158 1411.15307955 612.96045855 1411.25319374 613.65860936 C1416.4260507 649.73091652 1421.6319682 685.79817337 1426.91165161 721.85502625 C1427.78711119 727.83449565 1428.66062767 733.81424776 1429.53369141 739.79406738 C1429.95295404 742.6651018 1430.37223804 745.5361331 1430.79153061 748.40716314 C1431.06420422 750.27429107 1431.33685112 752.14142289 1431.60947037 754.00855875 C1433.18083216 764.76885534 1434.76047436 775.52786664 1436.35325408 786.28501433 C1437.33342385 792.90856294 1438.30502853 799.53332984 1439.26967072 806.15915757 C1439.92152672 810.6335055 1440.58359592 815.10616224 1441.2542429 819.57773018 C1441.7443278 822.86742079 1442.21806122 826.15941882 1442.6940918 829.45117188 C1442.87236259 830.61722017 1443.05063339 831.78326847 1443.23430634 832.98465157 C1443.38428322 834.04385244 1443.5342601 835.10305332 1443.68878174 836.1943512 C1443.82344975 837.1069851 1443.95811775 838.01961901 1444.09686661 838.95990849 C1444.13546663 841.73082822 1443.62181015 843.07162541 1442.13061523 845.38256836 C1440.02124023 847.32006836 1440.02124023 847.32006836 1437.38061523 849.38256836 C1432.88175143 852.96281599 1428.4797507 856.62197499 1424.13061523 860.38256836 C1420.02888224 863.9193091 1415.90256786 867.41122485 1411.69311523 870.82006836 C1407.25822206 874.41892865 1402.93493738 878.129889 1398.63061523 881.88256836 C1393.47481623 886.37759913 1388.25550857 890.76879887 1382.93920898 895.07397461 C1379.62763044 897.79600927 1376.37748465 900.58396567 1373.13061523 903.38256836 C1369.00597223 906.93714328 1364.8585362 910.45049134 1360.63061523 913.88256836 C1355.22698621 918.27202654 1349.95023068 922.79939645 1344.67358398 927.33959961 C1339.72502808 931.5960876 1334.73582984 935.80423842 1329.74829102 940.01489258 C1328.10152545 941.40716253 1326.45751456 942.80262308 1324.81420898 944.19897461 C1319.80826872 948.44996895 1314.79021143 952.67821127 1309.69311523 956.82006836 C1304.27490945 961.23169891 1298.97790673 965.77580478 1293.68139648 970.33178711 C1286.442454 976.55779203 1279.17195614 982.74343076 1271.75561523 988.75756836 C1266.63328 992.92413259 1261.65644146 997.24458117 1256.68017578 1001.58300781 C1252.17121566 1005.50506376 1247.58363459 1009.31288701 1242.93920898 1013.07397461 C1239.62763044 1015.79600927 1236.37748465 1018.58396567 1233.13061523 1021.38256836 C1229.00597223 1024.93714328 1224.8585362 1028.45049134 1220.63061523 1031.88256836 C1215.22698621 1036.27202654 1209.95023068 1040.79939645 1204.67358398 1045.33959961 C1199.72502808 1049.5960876 1194.73582984 1053.80423842 1189.74829102 1058.01489258 C1188.10152545 1059.40716253 1186.45751456 1060.80262308 1184.81420898 1062.19897461 C1179.80826872 1066.44996895 1174.79021143 1070.67821127 1169.69311523 1074.82006836 C1164.27490945 1079.23169891 1158.97790673 1083.77580478 1153.68139648 1088.33178711 C1146.442454 1094.55779203 1139.17195614 1100.74343076 1131.75561523 1106.75756836 C1127.30244853 1110.37982349 1122.95719132 1114.11132117 1118.63061523 1117.88256836 C1111.69007463 1123.93047977 1104.61419016 1129.78792218 1097.43139648 1135.54663086 C1091.38016249 1140.43250595 1085.60784868 1145.5357472 1079.90795898 1150.82006836 C1077.02714457 1153.47803497 1074.09354976 1156.06272335 1071.13452148 1158.63256836 C1068.72135776 1160.7399706 1066.32991187 1162.8703484 1063.94311523 1165.00756836 C1063.14518555 1165.72170898 1062.34725586 1166.43584961 1061.52514648 1167.17163086 C1059.90471837 1168.66781734 1058.31516024 1170.19802336 1056.75561523 1171.75756836 C1053.67825793 1174.83492567 1050.51049273 1177.800446 1047.31811523 1180.75756836 C1046.69501465 1181.33555176 1046.07191406 1181.91353516 1045.42993164 1182.5090332 C1041.73355978 1185.92796042 1037.99799989 1189.28881593 1034.18530273 1192.57788086 C1031.46136736 1194.97038683 1028.79721537 1197.42666255 1026.13061523 1199.88256836 C1022.17206723 1203.52678997 1018.17884549 1207.1217074 1014.11499023 1210.64819336 C1010.07686833 1214.1775755 1006.11146842 1217.78891062 1002.13061523 1221.38256836 C1000.46420672 1222.88285515 998.79754171 1224.38285708 997.13061523 1225.88256836 C996.30561523 1226.62506836 995.48061523 1227.36756836 994.63061523 1228.13256836 C957.13061523 1261.88256836 957.13061523 1261.88256836 954.63842773 1264.12475586 C952.94468629 1265.6496508 951.25200355 1267.17572238 949.56030273 1268.70288086 C945.81497268 1272.08169544 942.06543316 1275.45152801 938.25561523 1278.75756836 C934.288088 1282.21108397 930.42213883 1285.77260776 926.55297852 1289.33520508 C923.16616963 1292.4484188 919.73163979 1295.49501374 916.25561523 1298.50756836 C913.51238105 1300.92806911 910.82176955 1303.40457478 908.13061523 1305.88256836 C904.22079928 1309.48269592 900.27195056 1313.02674441 896.25561523 1316.50756836 C893.51238105 1318.92806911 890.82176955 1321.40457478 888.13061523 1323.88256836 C884.22079928 1327.48269592 880.27195056 1331.02674441 876.25561523 1334.50756836 C873.51238067 1336.92806944 870.82178618 1339.40459246 868.13061523 1341.88256836 C864.19776682 1345.50346969 860.22847511 1349.07215761 856.18920898 1352.57397461 C853.64104874 1354.81268086 851.13650931 1357.09667048 848.63061523 1359.38256836 C845.51154512 1362.22781064 842.38306132 1365.05456416 839.19311523 1367.82006836 C835.24394156 1371.25025412 831.40039219 1374.79260354 827.55273438 1378.33544922 C824.16598905 1381.44856135 820.73155274 1384.49508918 817.25561523 1387.50756836 C814.51238105 1389.92806911 811.82176955 1392.40457478 809.13061523 1394.88256836 C805.22079928 1398.48269592 801.27195056 1402.02674441 797.25561523 1405.50756836 C794.5123803 1407.92806977 791.82180281 1410.40461013 789.13061523 1412.88256836 C785.172018 1416.52673776 781.17884692 1420.12170615 777.11499023 1423.64819336 C773.07686833 1427.1775755 769.11146842 1430.78891062 765.13061523 1434.38256836 C763.46420672 1435.88285515 761.79754171 1437.38285708 760.13061523 1438.88256836 C759.30561523 1439.62506836 758.48061523 1440.36756836 757.63061523 1441.13256836 C720.13061523 1474.88256836 720.13061523 1474.88256836 717.63842773 1477.12475586 C715.94468629 1478.6496508 714.25200355 1480.17572238 712.56030273 1481.70288086 C708.81497268 1485.08169544 705.06543316 1488.45152801 701.25561523 1491.75756836 C697.288088 1495.21108397 693.42213883 1498.77260776 689.55297852 1502.33520508 C686.16616963 1505.4484188 682.73163979 1508.49501374 679.25561523 1511.50756836 C676.5123803 1513.92806977 673.82180281 1516.40461013 671.13061523 1518.88256836 C667.172018 1522.52673776 663.17884692 1526.12170615 659.11499023 1529.64819336 C655.07686833 1533.1775755 651.11146842 1536.78891062 647.13061523 1540.38256836 C645.46420672 1541.88285515 643.79754171 1543.38285708 642.13061523 1544.88256836 C641.30561523 1545.62506836 640.48061523 1546.36756836 639.63061523 1547.13256836 C622.13061523 1562.88256836 622.13061523 1562.88256836 619.63842773 1565.12475586 C617.94468629 1566.6496508 616.25200355 1568.17572238 614.56030273 1569.70288086 C610.81497268 1573.08169544 607.06543316 1576.45152801 603.25561523 1579.75756836 C599.288088 1583.21108397 595.42213883 1586.77260776 591.55297852 1590.33520508 C588.16616963 1593.4484188 584.73163979 1596.49501374 581.25561523 1599.50756836 C578.51238105 1601.92806911 575.82176955 1604.40457478 573.13061523 1606.88256836 C569.22079928 1610.48269592 565.27195056 1614.02674441 561.25561523 1617.50756836 C558.51238105 1619.92806911 555.82176955 1622.40457478 553.13061523 1624.88256836 C549.22079928 1628.48269592 545.27195056 1632.02674441 541.25561523 1635.50756836 C538.51238105 1637.92806911 535.82176955 1640.40457478 533.13061523 1642.88256836 C529.22079928 1646.48269592 525.27195056 1650.02674441 521.25561523 1653.50756836 C518.51238067 1655.92806944 515.82178618 1658.40459246 513.13061523 1660.88256836 C509.19776682 1664.50346969 505.22847511 1668.07215761 501.18920898 1671.57397461 C498.64104874 1673.81268086 496.13650931 1676.09667048 493.63061523 1678.38256836 C490.51154512 1681.22781064 487.38306132 1684.05456416 484.19311523 1686.82006836 C480.24394156 1690.25025412 476.40039219 1693.79260354 472.55273438 1697.33544922 C469.16598905 1700.44856135 465.73155274 1703.49508918 462.25561523 1706.50756836 C459.51238105 1708.92806911 456.82176955 1711.40457478 454.13061523 1713.88256836 C450.22079928 1717.48269592 446.27195056 1721.02674441 442.25561523 1724.50756836 C439.51238105 1726.92806911 436.82176955 1729.40457478 434.13061523 1731.88256836 C430.22079928 1735.48269592 426.27195056 1739.02674441 422.25561523 1742.50756836 C419.51238105 1744.92806911 416.82176955 1747.40457478 414.13061523 1749.88256836 C410.22079928 1753.48269592 406.27195056 1757.02674441 402.25561523 1760.50756836 C399.5123803 1762.92806977 396.82180281 1765.40461013 394.13061523 1767.88256836 C390.172018 1771.52673776 386.17884692 1775.12170615 382.11499023 1778.64819336 C378.07686833 1782.1775755 374.11146842 1785.78891062 370.13061523 1789.38256836 C368.46420672 1790.88285515 366.79754171 1792.38285708 365.13061523 1793.88256836 C364.30561523 1794.62506836 363.48061523 1795.36756836 362.63061523 1796.13256836 C355.13061523 1802.88256836 355.13061523 1802.88256836 352.64624023 1805.11694336 C350.92542961 1806.66674175 349.20677893 1808.21894087 347.48999023 1809.77319336 C345.79160867 1811.30885573 344.08494859 1812.83542785 342.36889648 1814.35131836 C340.17312792 1816.28397052 340.17312792 1816.28397052 338.48608398 1818.16381836 C337.06811523 1819.63256836 337.06811523 1819.63256836 334.13061523 1821.38256836 C332.26707458 1821.03907776 332.26707458 1821.03907776 330.14404297 1820.24414062 C329.34344452 1819.95250031 328.54284607 1819.66085999 327.71798706 1819.36038208 C326.43723801 1818.87636429 326.43723801 1818.87636429 325.13061523 1818.38256836 C323.3719346 1817.75129556 321.6128869 1817.12104462 319.85351562 1816.49169922 C317.89466167 1815.77814149 315.93627138 1815.06331005 313.97827148 1814.34741211 C312.90720657 1813.95704269 311.83614166 1813.56667328 310.73262024 1813.16447449 C308.42531337 1812.32352307 306.11818496 1811.48208191 303.81121826 1810.64019775 C297.58944373 1808.37007239 291.36598823 1806.10456531 285.14233398 1803.83959961 C284.50791634 1803.60868874 283.87349869 1803.37777786 283.21985626 1803.13986969 C270.65827527 1798.56838285 258.0848208 1794.03030664 245.50561523 1789.50756836 C243.47013305 1788.77555453 241.43465128 1788.04353955 239.39916992 1787.31152344 C236.26934988 1786.18604206 233.13950659 1785.06062546 230.00961304 1783.93534851 C216.65177867 1779.13256947 203.29683119 1774.32178423 189.94311523 1769.50756836 C189.30152088 1769.27627983 188.65992653 1769.0449913 187.99888992 1768.80669403 C167.82387443 1761.53347562 147.66334994 1754.22104885 127.51177979 1746.88308716 C111.45873458 1741.03817561 95.39466609 1735.22500632 79.31811523 1729.44506836 C62.32243098 1723.33318526 45.32846768 1717.21658283 28.34276676 1711.07700253 C25.09000776 1709.90127587 21.83701292 1708.72621419 18.58334351 1707.55300903 C14.96947352 1706.24948302 11.35657102 1704.94330948 7.74389648 1703.63647461 C6.13334885 1703.05645691 6.13334885 1703.05645691 4.49026489 1702.46472168 C2.53727113 1701.75702785 0.59012319 1701.03287438 -1.34919739 1700.28852844 C-3.77662365 1699.3494132 -3.77662365 1699.3494132 -6.0188446 1698.93693542 C-7.87670898 1698.47729492 -7.87670898 1698.47729492 -10.86938477 1696.38256836 C-12.44509179 1692.64334891 -13.20966629 1688.80675917 -13.95219612 1684.82695961 C-14.38455915 1682.51082359 -14.85344783 1680.20441393 -15.33018494 1677.89701843 C-16.08752359 1674.21552792 -16.82862559 1670.53115849 -17.56243896 1666.84490967 C-19.01032249 1659.62594382 -20.55037845 1652.42722141 -22.09643555 1645.22875977 C-22.39166132 1643.85303986 -22.68687002 1642.47731629 -22.98206234 1641.1015892 C-23.44022515 1638.96652839 -23.89842222 1636.83147501 -24.35680288 1634.69646096 C-26.16233131 1626.2827701 -27.94922553 1617.86512981 -29.73632812 1609.44750977 C-30.42734201 1606.1936932 -31.1184437 1602.93989529 -31.80953979 1599.68609619 C-32.07016528 1598.45892565 -32.07016528 1598.45892565 -32.33605593 1597.20696378 C-34.31566489 1587.88659451 -36.29861097 1578.56693563 -38.28173828 1569.24731445 C-38.65105848 1567.51164894 -39.02037808 1565.7759833 -39.38969707 1564.04031754 C-39.94791 1561.4169415 -40.50612812 1558.79356657 -41.06435913 1556.17019439 C-42.95296812 1547.29475041 -44.84112433 1538.41921012 -46.72925985 1529.54366541 C-47.87170137 1524.17346672 -49.01421616 1518.80328363 -50.15671271 1513.43309665 C-51.2971315 1508.07261208 -52.43743722 1502.71210348 -53.57766563 1497.35157841 C-57.78418923 1477.57581533 -61.9934949 1457.80065074 -66.21121502 1438.02727222 C-68.09620523 1429.18964605 -69.97849661 1420.3514544 -71.85716367 1411.51248187 C-73.13756623 1405.48948251 -74.42121888 1399.4671818 -75.70748305 1393.44543153 C-76.44770195 1389.9795717 -77.18647124 1386.51341944 -77.92136765 1383.04642677 C-78.71619013 1379.29692336 -79.51790134 1375.54891256 -80.3203125 1371.80102539 C-80.66668306 1370.15893836 -80.66668306 1370.15893836 -81.020051 1368.48367786 C-81.23587298 1367.48110793 -81.45169497 1366.478538 -81.67405701 1365.44558716 C-81.85795707 1364.58223314 -82.04185713 1363.71887913 -82.23132992 1362.82936287 C-82.82693535 1360.32572269 -82.82693535 1360.32572269 -83.91566849 1357.81514645 C-84.81285692 1355.52675002 -85.15785608 1353.82732831 -85.32417297 1351.39830017 C-85.91451708 1345.20686471 -87.28046443 1339.2033292 -88.59277344 1333.13085938 C-88.87735434 1331.79852373 -89.16154402 1330.46610447 -89.44537926 1329.13360977 C-90.22324693 1325.48726151 -91.0065792 1321.84210603 -91.79081464 1318.19712281 C-92.63763544 1314.25643446 -93.47927187 1310.31463873 -94.32151794 1306.37297058 C-95.78683723 1299.51867397 -97.25531331 1292.66505989 -98.72589111 1285.81188965 C-100.89235832 1275.71549429 -103.05366884 1265.61800022 -105.21360207 1255.52020526 C-106.22997041 1250.76865905 -107.24652219 1246.01715209 -108.26312256 1241.26565552 C-108.46680403 1240.31366638 -108.67048551 1239.36167724 -108.88033915 1238.38083994 C-110.34704814 1231.52609772 -111.81468407 1224.67155434 -113.28277588 1217.81710815 C-118.93471261 1191.4282525 -124.57686961 1165.03732827 -130.20922852 1138.64428711 C-130.59421726 1136.84029705 -130.97920604 1135.03630701 -131.36419487 1133.23231697 C-132.90839988 1125.99633312 -134.4525228 1118.76033176 -135.99652386 1111.52430439 C-140.14940215 1092.06177807 -144.30450386 1072.59972657 -148.45977855 1053.13771176 C-149.26714774 1049.35622251 -150.07449616 1045.57472883 -150.88184506 1041.79323524 C-161.24099725 993.27268934 -171.60251113 944.75264771 -181.96401978 896.23260498 C-191.09649706 853.46775796 -200.22851052 810.70281214 -209.35766602 767.93725586 C-209.55054168 767.03373194 -209.74341734 766.13020802 -209.94213772 765.19930458 C-213.24258753 749.73838306 -216.54298931 734.27745128 -219.8433609 718.81651306 C-227.65781179 682.20894134 -235.47275713 645.60147538 -243.29174805 608.99487305 C-243.52086136 607.92220416 -243.74997468 606.84953528 -243.98603082 605.74436128 C-246.33289688 594.75679085 -248.67994263 583.76925887 -251.0277158 572.78188223 C-252.21036456 567.24718213 -253.392925 561.71246317 -254.57543945 556.17773438 C-254.80999777 555.07990147 -255.04455608 553.98206857 -255.28622222 552.850968 C-258.56576109 537.50044546 -261.84016005 522.14883439 -265.11091208 506.79643738 C-267.16084681 497.17518073 -269.21219513 487.5542255 -271.26391602 477.93334961 C-271.48703319 476.88696375 -271.71015037 475.84057788 -271.94002867 474.76248336 C-277.93219169 446.66274449 -283.98682034 418.57753507 -290.12350655 390.50900352 C-291.5175956 384.13083431 -292.90672611 377.75160283 -294.29217529 371.37155151 C-294.48221319 370.49648347 -294.67225109 369.62141542 -294.86804771 368.71983016 C-295.62118657 365.25121223 -296.37413341 361.78255294 -297.12637806 358.31374097 C-299.26947056 348.43152889 -301.42912588 338.55335297 -303.62023443 328.68167084 C-304.95114525 322.67908177 -306.26192878 316.67233735 -307.55618006 310.66173774 C-308.29262111 307.24525504 -309.03854613 303.83158591 -309.81049156 300.42293358 C-310.63279732 296.77068401 -311.41967532 293.11256715 -312.19775391 289.45068359 C-312.44594061 288.38915699 -312.69412731 287.32763039 -312.94983482 286.23393631 C-313.50204803 283.53577805 -313.95255589 281.13508043 -313.86938477 278.38256836 C-311.58958435 275.2950592 -311.58958435 275.2950592 -308.86938477 273.38256836 C-308.25836914 272.83213867 -307.64735352 272.28170898 -307.01782227 271.71459961 C-306.43258789 271.2131543 -305.84735352 270.71170898 -305.24438477 270.19506836 C-301.90751767 267.30521554 -298.62978662 264.35847531 -295.36938477 261.38256836 C-292.25031466 258.53732608 -289.12183085 255.71057256 -285.93188477 252.94506836 C-281.98271109 249.5148826 -278.13916172 245.97253318 -274.29150391 242.4296875 C-270.90475858 239.31657537 -267.47032228 236.27004754 -263.99438477 233.25756836 C-261.25115058 230.83706761 -258.56053908 228.36056194 -255.86938477 225.88256836 C-251.95956881 222.2824408 -248.01072009 218.73839231 -243.99438477 215.25756836 C-241.25114983 212.83706694 -238.56057234 210.36052658 -235.86938477 207.88256836 C-231.91078754 204.23839896 -227.91761645 200.64343056 -223.85375977 197.11694336 C-219.81563786 193.58756122 -215.85023795 189.9762261 -211.86938477 186.38256836 C-210.20297625 184.88228157 -208.53631124 183.38227964 -206.86938477 181.88256836 C-206.04438477 181.14006836 -205.21938477 180.39756836 -204.36938477 179.63256836 C-166.86938477 145.88256836 -166.86938477 145.88256836 -164.37719727 143.64038086 C-162.68345582 142.11548591 -160.99077308 140.58941434 -159.29907227 139.06225586 C-155.55374221 135.68344128 -151.80420269 132.31360871 -147.99438477 129.00756836 C-144.02685753 125.55405275 -140.16090836 121.99252896 -136.29174805 118.42993164 C-132.90493916 115.31671792 -129.47040933 112.27012298 -125.99438477 109.25756836 C-123.25115058 106.83706761 -120.56053908 104.36056194 -117.86938477 101.88256836 C-113.95956881 98.2824408 -110.01072009 94.73839231 -105.99438477 91.25756836 C-103.25114983 88.83706694 -100.56057234 86.36052658 -97.86938477 83.88256836 C-93.91078754 80.23839896 -89.91761645 76.64343056 -85.85375977 73.11694336 C-81.81563786 69.58756122 -77.85023795 65.9762261 -73.86938477 62.38256836 C-72.20297625 60.88228157 -70.53631124 59.38227964 -68.86938477 57.88256836 C-68.04438477 57.14006836 -67.21938477 56.39756836 -66.36938477 55.63256836 C-38.86938477 30.88256836 -38.86938477 30.88256836 -36.37719727 28.64038086 C-34.68345582 27.11548591 -32.99077308 25.58941434 -31.29907227 24.06225586 C-26.92505753 20.11627926 -22.54846021 16.17982242 -18.06079102 12.36303711 C-16.29671354 10.76876389 -14.66369332 9.1479054 -13.02172852 7.43334961 C-12.51174316 6.9201416 -12.00175781 6.40693359 -11.47631836 5.87817383 C-10.46839322 4.86132618 -9.48155384 3.82300645 -8.52026367 2.76196289 C-5.46957852 -0.25951912 -4.27520361 -0.68218751 0 0 Z " fill="#8C52FF" transform="translate(434.869384765625,89.617431640625)"/>
<path d="M0 0 C113.52 0 227.04 0 344 0 C342.49756887 4.5072934 341.18644101 7.72228391 338.8671875 11.7265625 C338.23425781 12.82613281 337.60132813 13.92570313 336.94921875 15.05859375 C336.25785576 16.24742099 335.56644827 17.43622235 334.875 18.625 C334.15437198 19.87336563 333.43433046 21.12206998 332.71484375 22.37109375 C331.22069053 24.96388176 329.72403245 27.55519882 328.22558594 30.14550781 C324.79338022 36.08347309 321.39869229 42.04280788 318 48 C316.66706242 50.33355955 315.33353021 52.66677908 314 55 C313.33332238 56.16666041 312.66665571 57.33332707 312 58.5 C276.00000002 121.49999996 276.00000002 121.49999996 275.00019836 123.24964905 C274.3328661 124.41748305 273.66553823 125.58531956 272.99821472 126.75315857 C271.34176745 129.65198546 269.6852296 132.5507605 268.02856445 135.44946289 C264.90665293 140.91213365 261.78544695 146.37520295 258.66671753 151.83969116 C257.19499772 154.41826832 255.72288044 156.99661846 254.25073242 159.57495117 C253.54968724 160.8030278 252.84883641 162.03121539 252.14819336 163.25952148 C251.1761123 164.96366068 250.20330504 166.66738557 249.23046875 168.37109375 C248.67770264 169.33974365 248.12493652 170.30839355 247.55541992 171.30639648 C246 174 246 174 244.2355957 176.47680664 C242.60281343 179.81108936 242.9979303 181.46540605 244 185 C245.14848642 187.63972754 245.14848642 187.63972754 246.66796875 190.2109375 C247.22419922 191.19578125 247.78042969 192.180625 248.35351562 193.1953125 C248.95873047 194.24460937 249.56394531 195.29390625 250.1875 196.375 C250.81462891 197.4784375 251.44175781 198.581875 252.08789062 199.71875 C256.9087505 208.17572297 261.81924201 216.58093083 266.74682617 224.97607422 C271.52771309 233.13707017 276.15071753 241.38019557 280.75 249.64453125 C284.74964452 256.81353695 288.84348044 263.92092763 293 271 C298.37196793 280.14913289 303.59076525 289.37403131 308.75 298.64453125 C312.74964729 305.81354191 316.84366494 312.92081537 321 320 C325.98406842 328.49315154 330.8748425 337.03347796 335.6875 345.625 C336.27595703 346.67429687 336.86441406 347.72359375 337.47070312 348.8046875 C340.09104102 353.49856359 342.59359791 358.18719583 345 363 C231.15 363 117.3 363 0 363 C1.45122453 359.37193866 2.87544185 356.25771216 4.765625 352.88671875 C5.59501587 351.40486084 5.59501587 351.40486084 6.44116211 349.89306641 C7.03807861 348.83522949 7.63499512 347.77739258 8.25 346.6875 C8.87334229 345.57810059 9.49668457 344.46870117 10.13891602 343.32568359 C14.89651512 334.88645955 19.76913391 326.51753774 24.67675781 318.16479492 C29.06422863 310.67085332 33.30447761 303.10282793 37.5 295.5 C42.80212322 285.89186858 48.23960865 276.37821068 53.80078125 266.91796875 C57.95900268 259.82838852 62.0036613 252.68193905 66 245.5 C70.57567317 237.27795763 75.236325 229.11455918 80 221 C85.00853744 212.45614972 89.94907412 203.87720768 94.8125 195.25 C95.41771484 194.18394531 96.02292969 193.11789062 96.64648438 192.01953125 C97.20271484 191.02824219 97.75894531 190.03695312 98.33203125 189.015625 C98.82421143 188.14196289 99.3163916 187.26830078 99.82348633 186.36816406 C101.37146787 183.30995399 101.37146787 183.30995399 102 180 C100.97565162 177.33245096 100.97565162 177.33245096 99.30859375 174.546875 C98.70072021 173.46519043 98.09284668 172.38350586 97.46655273 171.26904297 C96.79052254 170.09584378 96.11416298 168.92283433 95.4375 167.75 C94.74654343 166.53194199 94.05653264 165.31334702 93.36743164 164.09423828 C88.39453693 155.32352626 83.31054668 146.61558839 78.20288086 137.92285156 C74.04220909 130.83235151 69.99732091 123.68370421 66 116.5 C61.424336 108.2779741 56.76429252 100.1141857 52 92 C46.62803207 82.85086711 41.40923475 73.62596869 36.25 64.35546875 C32.25035271 57.18645809 28.15633506 50.07918463 24 43 C19.01593158 34.50684846 14.1251575 25.96652204 9.3125 17.375 C8.72404297 16.32570313 8.13558594 15.27640625 7.52929688 14.1953125 C4.90895898 9.50143641 2.40640209 4.81280417 0 0 Z " fill="#FEFEFF" transform="translate(1406,553)"/>
<path d="M0 0 C2.25505441 1.97575237 4.42334945 4.0246731 6.5625 6.125 C7.07578857 6.62789551 7.58907715 7.13079102 8.11791992 7.64892578 C10.96008198 10.56054907 12.79352559 13.10215959 14 17 C16.60716767 15.04462425 18.8122892 13.24272949 20.8125 10.65625 C33.67263758 -4.95963135 56.38937869 -13.64672544 76 -16 C89.59450527 -16.65099354 102.81008119 -16.60334504 116 -13 C117.32064453 -12.69255859 117.32064453 -12.69255859 118.66796875 -12.37890625 C136.19665411 -7.89223162 151.67863409 4.69544814 161 20 C166.88653717 30.68619525 169.98116641 42.02167626 172 54 C172.2554232 55.40372864 172.2554232 55.40372864 172.51600647 56.83581543 C173.30833492 62.46758034 173.13053071 68.14522343 173.11352539 73.82006836 C173.11367142 75.09880829 173.11381744 76.37754822 173.1139679 77.69503784 C173.11425365 81.18419569 173.10839279 84.67331885 173.10139394 88.16246867 C173.09512347 91.81530628 173.09455368 95.46814478 173.09336853 99.12098694 C173.09026608 106.03041667 173.08206738 112.9398305 173.07201904 119.84925324 C173.05872899 129.19143235 173.05334922 138.53361585 173.04751682 147.87580204 C173.03812673 162.58387993 173.01820056 177.29192426 173 192 C153.2 192 133.4 192 113 192 C112.96261719 183.58371094 112.92523437 175.16742187 112.88671875 166.49609375 C112.85255849 160.45936521 112.81655958 154.42266937 112.77792263 148.38597012 C112.72821724 140.58195676 112.68273452 132.777997 112.65356445 124.97387695 C112.63044115 118.79124148 112.5968865 112.60876115 112.55129844 106.42624909 C112.52755709 103.15888817 112.51026194 99.89170867 112.50238609 96.62426567 C113.10413946 69.48674546 113.10413946 69.48674546 101.21875 45.9765625 C92.43220736 37.4420928 82.45495057 36.405993 70.70922852 36.52929688 C58.53072607 36.93957525 49.70946755 40.92372785 41.28515625 49.80859375 C31.96113134 61.22044103 29.71109037 75.32489503 29.68115234 89.60009766 C29.67110672 90.71346497 29.6610611 91.82683228 29.65071106 92.97393799 C29.62004496 96.62064134 29.60289009 100.26727184 29.5859375 103.9140625 C29.56721253 106.45568461 29.54763814 108.99730059 29.5272522 111.53890991 C29.48128537 117.52385107 29.44382722 123.50878586 29.41057932 129.49380624 C29.3616942 138.18330027 29.29539682 146.87266498 29.23126221 155.5620575 C29.14321431 167.70799815 29.0733319 179.85392144 29 192 C9.53 192 -9.94 192 -30 192 C-30.03738281 183.57210938 -30.07476563 175.14421875 -30.11328125 166.4609375 C-30.14743737 160.41917637 -30.18343514 154.37744804 -30.22207737 148.33571625 C-30.27180103 140.52330767 -30.31728143 132.71095284 -30.34643555 124.8984375 C-30.3695446 118.70958557 -30.40308401 112.52088898 -30.44870156 106.33216059 C-30.47246171 103.06091893 -30.48974511 99.78985946 -30.49761391 96.51853561 C-30.04705109 69.51894404 -30.04705109 69.51894404 -41.78125 45.90625 C-50.54965526 37.42533344 -60.60177296 36.41352625 -72.28857422 36.52709961 C-83.89972289 36.91122314 -92.2991208 40.53730371 -100.6484375 48.58984375 C-114.97769031 64.04652508 -113.46184801 85.56959273 -113.51171875 105.18359375 C-113.52859183 107.69565188 -113.54674555 110.20770171 -113.56611633 112.71974182 C-113.60853162 118.61598195 -113.63820022 124.5121743 -113.66143972 130.40851885 C-113.69614598 138.97804808 -113.75721395 147.54739883 -113.81494904 156.1167984 C-113.89313453 168.07784847 -113.9439889 180.03873307 -114 192 C-133.47 192 -152.94 192 -173 192 C-173 124.35 -173 56.7 -173 -13 C-154.52 -13 -136.04 -13 -117 -13 C-117 -5.41 -117 2.18 -117 10 C-114.36 7.69 -111.72 5.38 -109 3 C-79.63123069 -21.64878853 -30.53385449 -23.93431822 0 0 Z " fill="#FEFEFF" transform="translate(1231,976)"/>
<path d="M0 0 C13.08494509 12.13577809 20.75472536 26.26928852 23.84430122 43.81305218 C24.12772708 45.36429484 24.43548718 46.91124862 24.76486015 48.45338917 C26.25930448 55.75460526 26.53460399 62.75139922 26.48876953 70.18823242 C26.48906158 71.44804932 26.48935364 72.70786621 26.48965454 74.00585938 C26.49022301 77.42457921 26.47855178 80.84315566 26.46450663 84.26184249 C26.45191385 87.84791933 26.45082209 91.43400028 26.44845581 95.02009583 C26.44226595 101.79483537 26.4258893 108.56950956 26.40575683 115.34422046 C26.37911561 124.51021644 26.36840501 133.67623059 26.3567524 142.84225559 C26.33800659 157.26077134 26.29814445 171.67914921 26.26171875 186.09765625 C7.78171875 186.09765625 -10.69828125 186.09765625 -29.73828125 186.09765625 C-30.06828125 178.50765625 -30.39828125 170.91765625 -30.73828125 163.09765625 C-32.05828125 164.62390625 -33.37828125 166.15015625 -34.73828125 167.72265625 C-46.02328868 180.20482516 -58.61094366 184.87344492 -74.73828125 188.09765625 C-75.64964844 188.29359375 -76.56101562 188.48953125 -77.5 188.69140625 C-91.05128321 190.3914466 -105.6843904 190.280671 -118.73828125 186.09765625 C-119.7953125 185.81921875 -120.85234375 185.54078125 -121.94140625 185.25390625 C-138.05637131 180.82420022 -152.59010307 172.05186443 -161.16796875 157.3203125 C-168.76473122 141.72994176 -171.75859797 125.6948118 -166.703125 108.7578125 C-160.99867728 93.03016515 -150.4945789 82.21030569 -135.80078125 74.5703125 C-119.18923459 67.14477058 -102.18178482 65.93180454 -84.2265625 66 C-82.76254831 66.00186977 -81.29853348 66.00329102 -79.83451843 66.00428772 C-76.01895356 66.00806896 -72.20342798 66.01786063 -68.38787842 66.0289917 C-64.47929414 66.03930135 -60.57070339 66.04380562 -56.66210938 66.04882812 C-49.0208156 66.05948776 -41.37955397 66.07651001 -33.73828125 66.09765625 C-33.88130442 64.33520564 -34.02921871 62.57315149 -34.17919922 60.8112793 C-34.26104462 59.82999557 -34.34289001 58.84871185 -34.42721558 57.83769226 C-35.41400863 49.14548116 -39.98615776 40.64581655 -46.73828125 35.09765625 C-62.5276991 24.7828431 -82.07146499 23.956189 -100.1027832 27.53686523 C-114.0838866 30.62375938 -127.22618801 35.36765221 -138.73828125 44.09765625 C-140.89846264 42.08587568 -142.36732993 40.22918009 -143.71533203 37.60766602 C-144.07225128 36.92007706 -144.42917053 36.2324881 -144.79690552 35.52406311 C-145.17201263 34.78651291 -145.54711975 34.04896271 -145.93359375 33.2890625 C-146.32650604 32.52593246 -146.71941833 31.76280243 -147.12423706 30.97654724 C-147.95230341 29.36494033 -148.77752729 27.75187017 -149.60009766 26.13745117 C-150.8587235 23.66909468 -152.12785318 21.2063589 -153.3984375 18.74414062 C-154.20245502 17.1761052 -155.00586112 15.60775609 -155.80859375 14.0390625 C-156.18774933 13.30353653 -156.56690491 12.56801056 -156.95755005 11.81019592 C-157.30816498 11.1194548 -157.65877991 10.42871368 -158.02001953 9.71704102 C-158.32851837 9.11320084 -158.63701721 8.50936066 -158.9548645 7.88722229 C-159.78862036 5.98266616 -160.28965473 4.12453098 -160.73828125 2.09765625 C-115.74510542 -24.96855108 -43.33747586 -37.17710739 0 0 Z " fill="#FEFDFF" transform="translate(716.73828125,981.90234375)"/>
<path d="M0 0 C19.8 0 39.6 0 60 0 C60.02578125 8.4046875 60.0515625 16.809375 60.078125 25.46875 C60.10652367 31.50045455 60.13739856 37.53210701 60.1718235 43.56377602 C60.21598912 51.35941218 60.25448617 59.1549345 60.27099609 66.95068359 C60.28409551 73.12713529 60.31126796 79.30334636 60.35461307 85.47966242 C60.3770442 88.74319891 60.39082053 92.00638125 60.39188385 95.27000427 C59.97837833 121.66040553 59.97837833 121.66040553 71 145 C78.36456842 152.30108076 87.64449547 155.49418446 97.87304688 155.546875 C99.38995117 155.52367187 99.38995117 155.52367187 100.9375 155.5 C101.94490234 155.51546875 102.95230469 155.5309375 103.99023438 155.546875 C116.03023949 155.48493285 125.12414388 151.39308324 133.8359375 143.29296875 C144.46165942 132.27284231 147.28834396 118.1493721 147.31884766 103.42163086 C147.32889328 102.29865601 147.3389389 101.17568115 147.34928894 100.01867676 C147.37999806 96.33407061 147.39712205 92.64953672 147.4140625 88.96484375 C147.432784 86.39937219 147.45235814 83.83390672 147.4727478 81.26844788 C147.51874526 75.22326609 147.55619043 69.17809073 147.58942068 63.1328302 C147.6315322 55.56830757 147.68685238 48.00388861 147.7421875 40.43945312 C147.84073639 26.95969261 147.91944701 13.47990672 148 0 C167.8 0 187.6 0 208 0 C208 67.65 208 135.3 208 205 C189.19 205 170.38 205 151 205 C150.67 197.41 150.34 189.82 150 182 C147.36 184.64 144.72 187.28 142 190 C120.67487144 206.32665908 95.11094033 210.37139887 68.875 207.3125 C48.10918195 203.90318659 28.69977528 193.48122197 16.0546875 176.3671875 C3.77589727 157.70980495 -0.36560064 136.75294412 -0.22705078 114.66064453 C-0.22734283 113.41014313 -0.22763489 112.15964172 -0.22793579 110.87124634 C-0.22679367 107.49191813 -0.21686956 104.11284433 -0.20278788 100.73356104 C-0.19015535 97.18353708 -0.18910027 93.63350855 -0.18673706 90.08346558 C-0.18055864 83.38319897 -0.16419793 76.68299881 -0.14403808 69.98276126 C-0.11735008 60.91301859 -0.10667699 51.84325731 -0.09503365 42.77348518 C-0.07631403 28.51560716 -0.03644443 14.25786927 0 0 Z " fill="#FDFDFF" transform="translate(795,963)"/>
<path d="M0 0 C20.46 0 40.92 0 62 0 C62 71.28 62 142.56 62 216 C106.22 216 150.44 216 196 216 C196 232.83 196 249.66 196 267 C131.32 267 66.64 267 0 267 C0 178.89 0 90.78 0 0 Z " fill="#FDFCFF" transform="translate(333,901)"/>
<path d="M0 0 C1.02075623 0.00007553 2.04151245 0.00015106 3.09320068 0.00022888 C4.18811829 0.00539017 5.28303589 0.01055145 6.41113281 0.01586914 C8.10064056 0.01799156 8.10064056 0.01799156 9.82427979 0.02015686 C13.42096617 0.0257534 17.01759025 0.03830529 20.61425781 0.05102539 C23.053059 0.05604084 25.49186116 0.06060367 27.93066406 0.06469727 C33.90854989 0.07572169 39.8863994 0.09245641 45.86425781 0.11352539 C45.93721766 3.82305648 45.98140635 7.53240133 46.02050781 11.24243164 C46.05192871 12.81329529 46.05192871 12.81329529 46.08398438 14.41589355 C46.14520184 22.15531109 45.31955588 27.32973626 39.86425781 33.11352539 C39.29578125 33.8212207 38.72730469 34.52891602 38.14160156 35.25805664 C31.23610723 43.16052255 20.28648369 48.1156527 9.86425781 49.11352539 C-2.64118064 49.82849329 -13.93615969 49.17778327 -24.13574219 41.11352539 C-28.24432804 37.15130137 -30.79361369 32.9977482 -31.47167969 27.28149414 C-31.55780769 20.70992742 -31.32221391 15.3998329 -27.13574219 10.11352539 C-21.95757638 4.87570329 -16.1852152 2.77998245 -9.13574219 1.11352539 C-8.53429382 0.93966812 -7.93284546 0.76581085 -7.31317139 0.58668518 C-4.81660862 0.04417702 -2.55515791 -0.00632465 0 0 Z " fill="#8D53FF" transform="translate(637.1357421875,1081.886474609375)"/>
</svg>
